<?xml version="1.0" encoding="utf-8"?>
<!-- Generator: Adobe Illustrator 23.0.6, SVG Export Plug-In . SVG Version: 6.00 Build 0)  -->
<svg version="1.1" id="Layer_1" xmlns="http://www.w3.org/2000/svg" xmlns:xlink="http://www.w3.org/1999/xlink" x="0px" y="0px" viewBox="0 0 425 222.5" style="enable-background: new 0 0 425 222.5;" xml:space="preserve">
    <style type="text/css">
        @import url("https://fonts.googleapis.com/css?family=Roboto:300,400,700");
        .st0 {
            opacity: 0.5;
            fill: #ff513f;
            enable-background: new;
        }
        .st1 {
            fill: none;
            stroke: #000000;
            stroke-width: 0.5;
            stroke-miterlimit: 10;
        }
        .st2 {
            opacity: 0.4;
            fill: none;
            stroke: #000000;
            stroke-width: 0.5;
            stroke-miterlimit: 10;
            enable-background: new;
        }
        .st3 {
            fill: #383838;
        }
        .st4 {
            fill: #ffffff;
        }
        .st5 {
            opacity: 0.5;
        }
        .st6 {
            font-family: "Roboto";
            font-weight: 300;
        }
        .st7 {
            font-size: 12px;
        }
        .st8 {
            fill: #4d4d4d;
        }
        .st9 {
            font-size: 14px;
        }
        .st10 {
            font-family: "Roboto";
            font-weight: 700;
        }
        .st11 {
            fill: none;
            stroke: #383838;
            stroke-width: 0.5;
            stroke-miterlimit: 10;
        }
    </style>
    <rect x="252.4" y="92.9" class="st0" width="78.1" height="12.3" />
    <g>
        <line class="st1" x1="276.4" y1="105.8" x2="276.4" y2="92.5" />
        <line class="st2" x1="399.4" y1="100.9" x2="399.4" y2="97.3" />
        <line class="st2" x1="395.4" y1="100.9" x2="395.4" y2="97.3" />
        <line class="st2" x1="391.2" y1="100.9" x2="391.2" y2="97.3" />
        <line class="st2" x1="387.1" y1="100.9" x2="387.1" y2="97.3" />
        <line class="st2" x1="383.1" y1="100.9" x2="383.1" y2="97.3" />
        <line class="st2" x1="378.9" y1="100.9" x2="378.9" y2="97.3" />
        <line class="st2" x1="374.8" y1="100.9" x2="374.8" y2="97.3" />
        <line class="st2" x1="370.7" y1="100.9" x2="370.7" y2="97.3" />
        <line class="st2" x1="366.6" y1="100.9" x2="366.6" y2="97.3" />
        <line class="st2" x1="362.6" y1="100.9" x2="362.6" y2="97.3" />
        <line class="st2" x1="358.4" y1="100.9" x2="358.4" y2="97.3" />
        <line class="st2" x1="354.3" y1="100.9" x2="354.3" y2="97.3" />
        <line class="st2" x1="350.2" y1="100.9" x2="350.2" y2="97.3" />
        <line class="st2" x1="346.1" y1="100.9" x2="346.1" y2="97.3" />
        <line class="st2" x1="342" y1="100.9" x2="342" y2="97.3" />
        <line class="st2" x1="337.9" y1="100.9" x2="337.9" y2="97.3" />
        <line class="st2" x1="333.9" y1="100.9" x2="333.9" y2="97.3" />
        <line class="st2" x1="329.7" y1="100.9" x2="329.7" y2="97.3" />
        <line class="st2" x1="325.6" y1="100.9" x2="325.6" y2="97.3" />
        <line class="st2" x1="321.5" y1="100.9" x2="321.5" y2="97.3" />
        <line class="st2" x1="317.4" y1="100.9" x2="317.4" y2="97.3" />
        <line class="st2" x1="313.4" y1="100.9" x2="313.4" y2="97.3" />
        <line class="st2" x1="309.2" y1="100.9" x2="309.2" y2="97.3" />
        <line class="st2" x1="305.1" y1="100.9" x2="305.1" y2="97.3" />
        <line class="st2" x1="301" y1="100.9" x2="301" y2="97.3" />
        <line class="st2" x1="296.9" y1="100.9" x2="296.9" y2="97.3" />
        <line class="st2" x1="292.9" y1="100.9" x2="292.9" y2="97.3" />
        <line class="st2" x1="288.7" y1="100.9" x2="288.7" y2="97.3" />
        <line class="st2" x1="284.6" y1="100.9" x2="284.6" y2="97.3" />
        <line class="st2" x1="280.5" y1="100.9" x2="280.5" y2="97.3" />
        <line class="st1" x1="149.3" y1="105.8" x2="149.3" y2="92.5" />
        <line class="st2" x1="272.3" y1="100.9" x2="272.3" y2="97.3" />
        <line class="st2" x1="268.2" y1="100.9" x2="268.2" y2="97.3" />
        <line class="st2" x1="264.1" y1="100.9" x2="264.1" y2="97.3" />
        <line class="st2" x1="260.1" y1="100.9" x2="260.1" y2="97.3" />
        <line class="st2" x1="255.9" y1="100.9" x2="255.9" y2="97.3" />
        <line class="st2" x1="251.8" y1="100.9" x2="251.8" y2="97.3" />
        <line class="st2" x1="247.7" y1="100.9" x2="247.7" y2="97.3" />
        <line class="st2" x1="243.6" y1="100.9" x2="243.6" y2="97.3" />
        <line class="st2" x1="239.5" y1="100.9" x2="239.5" y2="97.3" />
        <line class="st2" x1="235.4" y1="100.9" x2="235.4" y2="97.3" />
        <line class="st2" x1="231.3" y1="100.9" x2="231.3" y2="97.3" />
        <line class="st2" x1="227.2" y1="100.9" x2="227.2" y2="97.3" />
        <line class="st2" x1="223.1" y1="100.9" x2="223.1" y2="97.3" />
        <line class="st2" x1="219" y1="100.9" x2="219" y2="97.3" />
        <line class="st2" x1="214.9" y1="100.9" x2="214.9" y2="97.3" />
        <line class="st2" x1="210.9" y1="100.9" x2="210.9" y2="97.3" />
        <line class="st2" x1="206.7" y1="100.9" x2="206.7" y2="97.3" />
        <line class="st2" x1="202.6" y1="100.9" x2="202.6" y2="97.3" />
        <line class="st2" x1="198.5" y1="100.9" x2="198.5" y2="97.3" />
        <line class="st2" x1="194.4" y1="100.9" x2="194.4" y2="97.3" />
        <line class="st2" x1="190.3" y1="100.9" x2="190.3" y2="97.3" />
        <line class="st2" x1="186.2" y1="100.9" x2="186.2" y2="97.3" />
        <line class="st2" x1="182.1" y1="100.9" x2="182.1" y2="97.3" />
        <line class="st2" x1="178" y1="100.9" x2="178" y2="97.3" />
        <line class="st2" x1="173.9" y1="100.9" x2="173.9" y2="97.3" />
        <line class="st2" x1="169.8" y1="100.9" x2="169.8" y2="97.3" />
        <line class="st2" x1="165.7" y1="100.9" x2="165.7" y2="97.3" />
        <line class="st2" x1="161.6" y1="100.9" x2="161.6" y2="97.3" />
        <line class="st2" x1="157.5" y1="100.9" x2="157.5" y2="97.3" />
        <line class="st2" x1="153.3" y1="100.9" x2="153.3" y2="97.3" />
        <line class="st1" x1="26.3" y1="105.8" x2="26.3" y2="92.5" />
        <line class="st2" x1="145.2" y1="100.9" x2="145.2" y2="97.3" />
        <line class="st2" x1="141.1" y1="100.9" x2="141.1" y2="97.3" />
        <line class="st2" x1="137" y1="100.9" x2="137" y2="97.3" />
        <line class="st2" x1="132.8" y1="100.9" x2="132.8" y2="97.3" />
        <line class="st2" x1="128.8" y1="100.9" x2="128.8" y2="97.3" />
        <line class="st2" x1="124.7" y1="100.9" x2="124.7" y2="97.3" />
        <line class="st2" x1="120.6" y1="100.9" x2="120.6" y2="97.3" />
        <line class="st2" x1="116.5" y1="100.9" x2="116.5" y2="97.3" />
        <line class="st2" x1="112.4" y1="100.9" x2="112.4" y2="97.3" />
        <line class="st2" x1="108.3" y1="100.9" x2="108.3" y2="97.3" />
        <line class="st2" x1="104.2" y1="100.9" x2="104.2" y2="97.3" />
        <line class="st2" x1="100.1" y1="100.9" x2="100.1" y2="97.3" />
        <line class="st2" x1="96" y1="100.9" x2="96" y2="97.3" />
        <line class="st2" x1="91.9" y1="100.9" x2="91.9" y2="97.3" />
        <line class="st2" x1="87.8" y1="100.9" x2="87.8" y2="97.3" />
        <line class="st2" x1="83.6" y1="100.9" x2="83.6" y2="97.3" />
        <line class="st2" x1="79.6" y1="100.9" x2="79.6" y2="97.3" />
        <line class="st2" x1="75.5" y1="100.9" x2="75.5" y2="97.3" />
        <line class="st2" x1="71.4" y1="100.9" x2="71.4" y2="97.3" />
        <line class="st2" x1="67.3" y1="100.9" x2="67.3" y2="97.3" />
        <line class="st2" x1="63.2" y1="100.9" x2="63.2" y2="97.3" />
        <line class="st2" x1="59.2" y1="100.9" x2="59.2" y2="97.3" />
        <line class="st2" x1="55" y1="100.9" x2="55" y2="97.3" />
        <line class="st2" x1="50.8" y1="100.9" x2="50.8" y2="97.3" />
        <line class="st2" x1="46.8" y1="100.9" x2="46.8" y2="97.3" />
        <line class="st2" x1="42.7" y1="100.9" x2="42.7" y2="97.3" />
        <line class="st2" x1="38.7" y1="100.9" x2="38.7" y2="97.3" />
        <line class="st2" x1="34.5" y1="100.9" x2="34.5" y2="97.3" />
        <line class="st2" x1="30.3" y1="100.9" x2="30.3" y2="97.3" />
    </g>
    <g>
        <ellipse transform="matrix(0.3162 -0.9487 0.9487 0.3162 78.3388 307.0108)" class="st3" cx="252.2" cy="99.2" rx="3.9" ry="3.9" />
        <path
            class="st4"
            d="M252.1,95.8c1.8,0,3.3,1.4,3.3,3.3c0,1.8-1.4,3.3-3.3,3.3c-1.8,0-3.3-1.4-3.3-3.3
		C248.8,97.3,250.4,95.8,252.1,95.8 M252.1,94.6c-2.5,0-4.5,2-4.5,4.5s2,4.5,4.5,4.5c2.5,0,4.5-2,4.5-4.5S254.6,94.6,252.1,94.6
		L252.1,94.6z"
        />
    </g>
    <g>
        <circle class="st3" cx="312.1" cy="99.2" r="3.9" />
        <path
            class="st4"
            d="M312.1,95.8c1.8,0,3.3,1.4,3.3,3.3c0,1.8-1.4,3.3-3.3,3.3c-1.8,0-3.3-1.4-3.3-3.3
		C308.8,97.3,310.3,95.8,312.1,95.8 M312.1,94.6c-2.5,0-4.5,2-4.5,4.5s2,4.5,4.5,4.5c2.5,0,4.5-2,4.5-4.5S314.5,94.6,312.1,94.6
		L312.1,94.6z"
        />
    </g>
    <g>
        <circle class="st3" cx="316.8" cy="99.2" r="3.9" />
        <path
            class="st4"
            d="M316.8,95.8c1.8,0,3.3,1.4,3.3,3.3c0,1.8-1.4,3.3-3.3,3.3c-1.8,0-3.3-1.4-3.3-3.3
		C313.5,97.3,314.9,95.8,316.8,95.8 M316.8,94.6c-2.5,0-4.5,2-4.5,4.5s2,4.5,4.5,4.5c2.5,0,4.5-2,4.5-4.5S319.3,94.6,316.8,94.6
		L316.8,94.6z"
        />
    </g>
    <g>
        <circle class="st3" cx="321.4" cy="99.2" r="3.9" />
        <path
            class="st4"
            d="M321.4,95.8c1.8,0,3.3,1.4,3.3,3.3c0,1.8-1.4,3.3-3.3,3.3c-1.8,0-3.3-1.4-3.3-3.3
		C318.1,97.4,319.6,95.8,321.4,95.8 M321.4,94.6c-2.5,0-4.5,2-4.5,4.5s2,4.5,4.5,4.5c2.5,0,4.5-2,4.5-4.5S323.9,94.6,321.4,94.6
		L321.4,94.6z"
        />
    </g>
    <g>
        <circle class="st3" cx="326" cy="99.2" r="3.9" />
        <path
            class="st4"
            d="M326,95.8c1.8,0,3.3,1.4,3.3,3.3c0,1.8-1.4,3.3-3.3,3.3c-1.8,0-3.3-1.4-3.3-3.3
		C322.7,97.4,324.3,95.8,326,95.8 M326,94.6c-2.5,0-4.5,2-4.5,4.5s2,4.5,4.5,4.5s4.5-2,4.5-4.5S328.5,94.6,326,94.6L326,94.6z"
        />
    </g>
    <g>
        <circle class="st3" cx="330.8" cy="99.2" r="3.9" />
        <path
            class="st4"
            d="M330.8,95.8c1.8,0,3.3,1.4,3.3,3.3c0,1.8-1.4,3.3-3.3,3.3c-1.8,0-3.3-1.4-3.3-3.3
		C327.5,97.4,328.9,95.8,330.8,95.8 M330.8,94.6c-2.5,0-4.5,2-4.5,4.5s2,4.5,4.5,4.5s4.5-2,4.5-4.5S333.2,94.6,330.8,94.6
		L330.8,94.6z"
        />
    </g>
    <g class="st5">
        <text transform="matrix(1 0 0 1 67.9944 76.0327)" class="st3 st6 st7">JUNIO</text>
        <text transform="matrix(1 0 0 1 197.1404 127.8525)" class="st3 st6 st7">JULIO</text>
        <text transform="matrix(1 0 0 1 335.9041 76.0327)" class="st3 st6 st7">AGOSTO</text>
    </g>
    <g>
        <text transform="matrix(1 0 0 1 46.7786 153.25)" class="st8 st6 st9">Proyecto de ley de extradición</text>
        <text transform="matrix(1 0 0 1 46.7787 170.0503)" class="st8 st6 st9">comienzan las protestas</text>
    </g>
    <text transform="matrix(1 0 0 1 190.3124 30.3032)" class="st8 st10 st9">Primera demostración</text>
    <text transform="matrix(1 0 0 1 200.0125 47.103)" class="st8 st10 st9">en la sala de llegadas</text>
    <line class="st11" x1="60.1" y1="136.1" x2="60.1" y2="101.3" />
    <line class="st11" x1="252.2" y1="96.6" x2="252.2" y2="53.2" />
    <g>
        <text transform="matrix(1 0 0 1 257.0804 153.25)" class="st8 st10 st9">5 días continuos de</text>
        <text transform="matrix(1 0 0 1 249.8803 170.0498)" class="st8 st10 st9">fin de las manifestaciones</text>
        <text transform="matrix(1 0 0 1 261.7803 186.8501)" class="st8 st10 st9">con más de 300</text>
        <text transform="matrix(1 0 0 1 270.5804 203.6499)" class="st8 st10 st9">vuelos cancelados</text>
    </g>
    <line class="st11" x1="320.6" y1="136.1" x2="320.6" y2="102.5" />
    <g>
        <circle class="st4" cx="59.2" cy="99.2" r="3.9" />
        <path
            class="st3"
            d="M59.2,95.8c1.8,0,3.3,1.4,3.3,3.3c0,1.8-1.4,3.3-3.3,3.3s-3.2-1.5-3.2-3.3C55.9,97.3,57.4,95.8,59.2,95.8
		 M59.2,94.6c-2.5,0-4.5,2-4.5,4.5s2,4.5,4.5,4.5s4.5-2,4.5-4.5S61.6,94.6,59.2,94.6L59.2,94.6z"
        />
    </g>
</svg>
